<?xml version="1.0" encoding="UTF-8"?>
<svg id="Capa_2" data-name="Capa 2" xmlns="http://www.w3.org/2000/svg" viewBox="0 0 496.65 64.75">
  <g id="HOME">
    <g id="FOOTER">
      <g>
        <polygon points="383.28 56.95 374.12 56.99 365.83 37.68 365.76 56.97 354.9 56.97 354.9 14.66 364.06 14.65 372.36 33.95 372.43 14.65 383.27 14.65 383.28 56.95"/>
        <path d="M25.42,17.96c-.24,0-.82-.15-.93-.38-.12-.27,0-.84.13-1.16.37,0,.98.09,1.13.35.17.3-.04.88-.33,1.2ZM24.83,16.99c-.11.05.15.49.25.43.07-.04.21-.09.29-.13.11-.04-.06-.33-.15-.41-.06-.05-.24.03-.39.1Z"/>
        <path d="M12.17,53.38c-.85-.37-.95-1.57-1.45-2.12l-5.73-6.3c-.62-.68-4.69-1.58-3.15-7.01l.91.64-.15-3.22c-.02-.51-.48-1.05-.91-1.37-1.36-.98-1.88-2.63-1.64-4.28l.43-2.97c.63.88,1.12,1.49,1.9,2.22.85-.82,1.09-1.5,1.54-2.73.7.7,1.05,1.65,1.46,2.77.7-.41,1.22-.94,1.76-1.63.84,1.88.24,4.04-1.17,5.5l-1.62,1.68c-.8.83.61,3.79,1.75,4.54l1.14-1.91c1.62,2.38,1.36,5.27-.6,7.42,1.27,1.55,2.54,2.9,3.89,4.25l.7-.02,1.76.77c.04-1.11.05-1.66.36-2.64l2.18,1.99c1.43,1.3,2.01,2.96,2.2,4.93,1.36,1.01,3.31,1.65,5.1,1.79-1.04-.85-1.39-3.46.12-3.79,2.02-.27,3.73,2.07,4.68,3.54l.29.45c.06.1.35-.13.46-.31.9-1.57,2.71-3.93,4.74-3.58,1.48.36,1.09,2.87.1,3.76,1.85-.08,3.48-.8,5.04-1.64.04-1.9.74-3.62,2.13-4.9l2.33-2.16c.27.99.3,1.61.36,2.64l1.38-.6c.21-.09.73-.11,1.04-.12l2.25-2.39-8.23-.08c.47-.67.98-1.25.97-1.83l-.06-4.68-12.42,12.39-7.68-7.63-1.41,1.81-8.84-.04c.17-.41.74-.99.74-1.37v-14.99c0-1.02-.4-1.61-1.14-2.61l7.02-.02c-.35.64-1.07,1.11-1.09,1.57-.11,1.87-.1,3.48,0,5.38l11.22-11.2c-2.52-.45-4.78-1-6.96-2.03-.99-.47-1.27-1.17-1.72-2.07l-3.13-6.23c1.02-.88,2.22-.29,3.1.34.23.16.99.15,1.12.4s.28.72.42,1.14c.2.62,1.59.65,1.81.06l-.71-.99c-.08-.11.45-2.21,1.22-2.36.57-.11.96.31,1.36.67.74.66.76,1.32.48,2.28.59.58,2.47.17,2.53-.7-1.39-2.78-.17-2.51.74-5.35-.42-1.14-1.76-1.64-2.98-1.49-2.89.35-3.63-1.46-7.39.4-3.29-.66-2.84.45-5.71,1.28.42-.88.96-1.48,1.61-2.05,2.83-2.51,4.76-3.17,7.95-4.41.13-.05.23.58.39.66,2.56,1.37,5.98,1.44,5.31.44-.28-.42-.57-.78-.62-1.07-.06-.32.27-.85.47-1.07L27.13,0l.25,1.14c.05.24.27.64.48.66.29.02.63-.36.68-.64l.2-1.16,1.05,1.06c.22.23.59.83.49,1.11s-.39.72-.62,1.1c-.14.23.46.67.89.68,2.36.05,5.59-1.49,4.81-1.81.09.04.33.14.46.18,3.05,1.01,5.79,2.55,8.09,4.8.44.43.74.85,1.05,1.53-2.8-.96-2.19-1.73-5.53-1.4-4.8-1.68-4.27.03-7.55-.36-1.26-.15-2.6.37-3.03,1.53.87,2.76,2.22,2.65.72,5.33.19.92,1.96,1.36,2.63.7-.38-.96-.3-1.63.51-2.33.34-.29.73-.66,1.22-.59.84.11,1.32,2.27,1.28,2.35-.13.26-.48.71-.7,1.04.29.55,1.58.56,1.8-.06l.41-1.15c.09-.26.91-.21,1.16-.39.82-.6,2.2-1.24,3.07-.28l-3.25,6.47c-.35.7-.63,1.24-1.35,1.62-2.2,1.16-4.51,1.69-7.13,2.17l11.2,11.18.11-3.95c.03-1.14-.33-1.94-1.13-3h6.93c-.6.82-1.11,1.37-1.11,2.22v13.73s3.28.02,3.28.02c-1.11-2.28-.88-4.42.36-6.3.37.82.62,1.28,1.15,1.99,1.13-.81,2.54-3.58,1.7-4.55-.64-.74-1.49-1.46-2.07-2.21-1.08-1.4-1.45-3.29-.75-4.92.6.71,1.16,1.28,1.78,1.56.41-1.06.76-1.83,1.39-2.8.54,1.16.69,1.99,1.65,2.77.76-.61,1.34-1.4,1.87-2.24l.45,3.13c.26,1.8-.43,3.41-1.93,4.41-.32.21-.62.87-.64,1.24l-.11,3.07.96-.56c1.41,5.45-2.48,6.22-3.17,6.96l-5.8,6.35c-.5.54-.66,1.73-1.42,2.12,1,.48,1.6.78,2.43,1.31-5.9,2.9-5.45,1.06-7.59,1.21-2.37.16-4.49,1.86-6.99,1.8-.64-.01-1.43.27-2.17.59,1.04,1.11,2.42,1.57,3.88,1.83l3.07.56c-.9.59-1.78.73-2.8.98.63,1,1.38,1.72,1.24,2.97-2.52-1.41-4.66-3.28-6.74-5.2-.19-.17-.74.14-.92.31-1.94,1.83-3.9,3.56-6.27,4.77-.07-1.36.71-2.02,1.24-2.95-1.01-.24-1.8-.39-2.85-.96l3.6-.66c1.29-.24,2.43-.78,3.43-1.7-.38-.18-.89-.43-1.16-.46-2.5-.27-4.75-.82-7.04-1.87-2.05-.94-2.34,1.39-6.03-.21l-2.53-1.09c.85-.54,1.44-.85,2.46-1.35ZM22.21,6.31c-.39-1.4-2.3-3.03-3.18-2.23s-1.5,1.5-2.11,2.52c1.87-.69,3.36-.75,5.29-.29ZM38.95,6.54c-.63-1.01-1.38-2.28-2.41-2.55-1.28-.33-2.49,1.19-2.67,2.27,1.9-.42,3.38-.24,5.08.27ZM26.7,6.94l-.25-2.39c-1.31.4-2.33.93-3.22,1.81,1.39.03,2.36.13,3.48.59ZM32.72,6.35c-.91-.88-1.94-1.42-3.24-1.81l-.26,2.4c1.2-.53,2.14-.56,3.5-.6ZM16.32,6.73c-.33-1.84-3.68-.02-3.8.6,1.42-.54,2.49-.79,3.8-.6ZM43.71,7.47c-.46-.83-4.07-2.59-4.02-.62,1.5-.51,2.57.18,4.02.62ZM36.55,16.83c.43.14.84.42,1.34.7l2.15-4.19c-1.02-.27-1.43.4-1.98.78l-.72.09c-.57.07.41,1.56-1.98,1.79-.58.06-1.22-.25-1.44-.76s.1-.96.49-1.48c-.01-.37-.31-1.16-.56-1.57-2.3,1.15-.47,2.21-1.24,2.81-.83.64-2.09.42-2.95-.07s-1.02-1.46-.46-2.17.37-1.39-.11-2.08c-.41-.59-.62-2.03-1.24-1.74-.54.25-.47.78-1.31,2.21-.25.43-.18,1.16.15,1.59.62.81.37,1.84-.54,2.27-.85.4-1.91.62-2.79.03-.4-.27-.11-.98-.07-1.5.05-.48-.68-1.14-1.23-1.41l-.61,1.62c.53.46.76.93.55,1.52-.14.38-.77.73-1.27.7-2.51-.12-1.54-1.72-2.14-1.79l-.71-.08c-.51-.51-1.19-1.1-1.93-.72l2.13,4.11c.46-.25.88-.55,1.27-.67,5.62-1.81,11.58-1.78,17.2,0ZM24.61,16.41c-1.6,0-3.24.47-4.93,1,.46.24.85.53.83.85-.04.55-.52.82-.9.72-.48-.12-.64-.63-.42-1.28l-.44.11c-.14.04-.29.6-.23.72l.47.97c2.14-.8,4.26-1.14,6.43-1.55.72-.14,1.65.06,2.36-.24l-.73-.28c-.14-.05-.23-.46-.15-.59.39-.63,1.72-.73,2.17.04.16.28-.36.8-.67.92,3.27.4,5.43.53,8.5,1.73.25.1.76-1.4.54-1.52l-.76-.42c.15.4.27.77.21.99-.07.25-.69.52-.95.45s-.46-.56-.43-.88c.02-.26.42-.47.9-.73-1.6-.46-3.34-.86-5.12-1.15.16.6.3,1.03.19,1.33-.09.26-.68.44-.92.3s-.52-.74-.42-1c.12-.29.7-.43,1.21-.63-2.24-.14-4.57-.43-6.73.14ZM30.7,16.92c-.11,0-.19.28-.09.33.16.08.34.23.39.14.06-.11.2-.45.09-.45h-.39ZM19.55,18.06c-.06.1-.06.42.05.43s.36-.02.42-.12,0-.26-.07-.36c-.04-.06-.36-.02-.4.05ZM36.01,18.17c-.09.06.12.45.21.4l.27-.16c.09-.05,0-.25-.08-.32-.05-.04-.33.03-.4.08ZM36.06,20c.13.38.21.66.3.58l.36-.36c.7-.69-5.88-1.66-6.39-1.71-3.6-.39-7.24.17-10.55,1.2-.17.05-.61.42-.5.52l.49.39c0-.21.21-.73.46-.81,5.23-1.5,10.65-1.48,15.83.19ZM28.02,51.36l1.51-1.66v-25.01s-1.54-1.56-1.54-1.56l-1.54,1.57v25.07s1.57,1.59,1.57,1.59ZM3.78,29.55c.37,1.4-1.03,3.77-.12,4.59,1.33-1.89,1.7-4.35.5-6.43-1.54,2.11-2.44,2.97-1.61,5.97l1.23-4.14ZM52.78,31.18c.32.96.52,1.94.63,2.84.57-1.3.68-3.11-.16-4.32l-1.32-1.93c-1.23,1.51-.86,5.02.55,6.41.79-1-.51-3.21-.19-4.5l.49,1.5ZM20.07,43.48l3.06,2.93v-18.34s-3.09,3.03-3.09,3.03l.02,12.39ZM35.95,43.37v-12.28s-3.09-3.02-3.09-3.02v18.36s3.09-3.05,3.09-3.05ZM1.06,29.42l.52,1.89c.49-1.02.46-2.17-.74-2.83-.58,1.33-.43,2.93.39,4.2l-.16-3.26ZM54.96,29.53l-.08,3.2c.82-1.22.93-2.68.42-4.19-1.38.85-1.24,1.53-.8,2.99l.46-2.01ZM5.21,32.65c1.19-.79,1.76-2.23,1.78-3.79-.93.27-1.87.89-1.48,2.04l.95-1.01c.16,1.18-1.01,1.55-1.25,2.75ZM50.52,30.95c.49-1.14-.58-1.88-1.48-1.93.1,1.55.63,3.01,1.83,3.65-.26-1.16-1.37-1.47-1.25-2.67l.9.95ZM16.72,39.98v-5.56s-2.84,2.81-2.84,2.81l2.84,2.76ZM42.12,37.22l-2.78-2.71c-.13,1.95-.13,3.54,0,5.46l2.78-2.75ZM5.59,43.81c.97-2.6.43-4.09-1.27-5.93-1,1.75-.9,3.68.15,5.23l.21-3.84c.65.87-.22,3.45.91,4.54ZM51.41,39.32l.2,3.93c1.12-1.65,1.13-3.67.15-5.3-1.72,1.8-2.3,3.57-1.21,5.92,1.04-1.18.2-3.35.86-4.55ZM6.46,43.82c1.53-1.44,1.75-3.6.84-5.49-.87,1.4-1.21,1.33-.5,3.1l.47-2.12c.81,2.23-1.1,3.51-.81,4.52ZM48.82,39.53l.44,1.93c.74-1.05.44-2.28-.59-2.93-.8,1.91-.54,4.22,1.08,5.29-.49-1.74-1.59-2.85-.93-4.29ZM2.43,40.09l.63.83c.14-.77-.32-1.4-.92-1.77-.5,1.7.12,3.48,1.61,4.23-.72-1.14-1.56-2.04-1.33-3.29ZM53.57,40.09c.46,1.48-.57,2.1-1.08,3.28,1.39-.76,1.97-2.42,1.5-4.11-.69.34-1.19,1.02-.89,1.86l.47-1.03ZM18.94,43.39l-3.33-3.32v3.45s3.33-.12,3.33-.12ZM14.3,49.44c1.25.98,2.12,2.09,2.85,3.4.07-1.91-2.11-3.56-3.5-4.75-.45,2.12.9,2.43,1.9,3.3-.53-.86-.94-1.2-1.25-1.95ZM41.8,49.55l-1.25,1.87c1.23-.86,2.33-1.42,1.88-3.29l-2.07,1.84c-.81.72-1.38,1.78-1.43,2.88.79-1.28,1.61-2.43,2.88-3.31ZM12.46,51.2c1.57.34,2.37,2.3,4.01,2.55-1.03-1.99-2.85-3.34-5.05-4.07-.4,1.21,0,2.6,1.11,3.3.94.6,1.94,1.01,3.01,1.15l-3.09-2.94ZM43.57,51.3l-3.03,2.91c.95-.14,1.66-.42,2.48-.8,1.38-.65,2.15-2.1,1.64-3.64-2.13.62-3.93,2.02-5.11,4.05,1.65-.17,2.37-2.12,4.02-2.52ZM26.92,56.45c1.29-1.12-3.52-5.56-4.28-3.79-.1.24-.04.77.21.86,1.75.66,2.9,1.53,4.07,2.93ZM33.35,53.56c.26-.59-.02-1.34-.53-1.27-1.67.23-3.99,2.37-3.91,3.98,0,.09.37.08.45-.02.79-.99,2.5-2.32,4-2.69ZM11.74,54.53l3.33.24c-1.65-.66-2.49-1.28-4.19-.11l2.3,1.02c.64.29,1.52.2,2.2-.15l-3.64-1ZM40.72,55.6c1.25.97,3.51-.36,4.45-.89-1.61-1.11-2.76-.54-4,.17l3.28-.27-3.73.99ZM28.5,58.02c.31-.42.42-.8.26-.95s-.35-.28-.61-.44l.35,1.38ZM27.66,57.83c.41-.03.19-1.14-.12-.99-.38.18-.47,1.04.12.99ZM21.7,63.6c1.13-.47,2.07-1.2,2.99-2.04l3.16-2.85c-.45-.31-.91-.21-1.21.07-1.47,1.38-3.2,1.69-5.25,2.18l1.99.21c-.64.8-1.23,1.41-1.69,2.42ZM32.68,61.33l2.17-.34c-2.2-.28-4.24-.87-5.89-2.49l-.48.26c-.07.04.12.43.2.51l2.92,2.59c.89.79,1.75,1.38,2.75,1.87-.38-1.02-.99-1.61-1.69-2.41Z"/>
        <path d="M405.43,50.52l-6.38-.03-.84,6.49h-11.75s8.18-42.33,8.18-42.33h15.19s8.17,42.29,8.17,42.29l-11.73.05-.84-6.47ZM404.2,40.89l-1.96-14.63-1.97,14.67,3.92-.04Z"/>
        <path d="M306.94,50.51h-6.39s-.84,6.47-.84,6.47h-11.74s8.17-42.32,8.17-42.32h15.19s8.17,42.28,8.17,42.28l-11.74.04-.83-6.47ZM305.71,40.91l-1.98-14.78-1.95,14.8,3.93-.02Z"/>
        <polygon points="434.55 14.66 446.31 14.65 438.14 56.97 422.94 56.98 414.76 14.66 426.52 14.65 430.54 42.73 434.55 14.66"/>
        <polygon points="468.49 40.57 460.39 40.61 460.37 47.08 470.23 47.1 470.24 56.98 449.48 56.97 449.48 14.65 469.5 14.65 469.52 24.54 460.39 24.57 460.38 30.69 468.48 30.72 468.49 40.57"/>
        <path d="M342.98,49.68c-3.11,9.26-14.06,9.4-21.79,5.89l.03-11c2.78,1.22,5.12,2.06,7.86,2.21.99-.04,1.92-.26,2.57-.98.75-1.33.39-2.95-.82-3.93l-4.65-3.75c-5.12-4.13-6.76-10.85-4.23-17.06,1.79-4.4,5.92-7.04,10.68-7.07,2.99-.02,5.87.44,8.42,2.05v10.13c-2.15-1.05-7.28-2.32-8.27.32-.41,1.08-.15,2.36.78,3.11l5.31,4.28c1.99,1.6,3.59,3.62,4.35,6.09.97,3.19.83,6.56-.23,9.71Z"/>
        <path d="M495.74,49.69c-3.13,9.25-14.08,9.38-21.79,5.87l.02-11c2.7,1.2,4.98,1.99,7.65,2.21,1.01-.01,1.98-.19,2.72-.86.85-1.35.5-3.05-.75-4.06l-4.65-3.75c-5.14-4.15-6.77-10.96-4.17-17.17,1.81-4.33,5.91-6.91,10.59-6.94,2.99-.02,5.88.43,8.44,2.03v10.14c-2.16-1.06-7.27-2.33-8.26.34-.36.98-.21,2.27.67,2.98l5.51,4.46c4.92,3.98,5.98,10.01,4.04,15.75Z"/>
        <polygon points="285.93 47.1 285.96 56.97 265.23 56.98 265.22 14.66 276.11 14.66 276.11 47.09 285.93 47.1"/>
        <polygon points="172.45 31.49 172.38 18.12 169.31 31.44 165.92 31.48 162.9 18.31 162.82 31.45 159.55 31.46 159.55 14.82 164.63 14.83 167.65 27.67 170.66 14.83 175.67 14.82 175.67 31.45 172.45 31.49"/>
        <polygon points="180.83 56.86 177.3 56.9 170.52 45.15 170.42 56.88 167.1 56.87 167.1 39.98 170.84 39.97 177.45 51.51 177.54 39.97 180.82 39.98 180.83 56.86"/>
        <path d="M83.39,52.89c-1.1,2.54-3.27,4-5.92,4h-7.49s0-16.91,0-16.91l8.11.03c2.55,0,4.53,1.59,5.5,3.89,1.02,2.88.99,6.04-.19,8.99ZM80.24,45.08c-.88-2.92-4.46-2.02-6.81-2.12v10.96s3.26.01,3.26.01c4.22.01,4.49-5.71,3.55-8.85Z"/>
        <polygon points="128.67 31.48 125.18 31.47 118.49 19.95 118.41 31.46 115.16 31.48 115.15 14.83 118.84 14.85 125.37 26.27 125.42 14.83 128.68 14.84 128.67 31.48"/>
        <path d="M207.39,31.36c-1.13.15-2.31.14-3.52.08l-6.67-11.56-.06,11.57h-3.28s0-16.62,0-16.62h3.69s6.53,11.36,6.53,11.36l.06-11.34,3.24-.03v16.53Z"/>
        <polygon points="163.29 49.5 155.09 49.52 155.1 53.82 164.41 53.84 164.41 56.89 151.62 56.89 151.61 39.97 164.02 39.96 164.02 42.97 155.09 42.99 155.12 46.56 163.27 46.57 163.29 49.5"/>
        <polygon points="97.79 49.5 89.6 49.51 89.58 53.82 98.92 53.83 98.93 56.89 86.11 56.89 86.1 39.97 98.51 39.96 98.53 42.96 89.59 42.99 89.6 46.56 97.77 46.57 97.79 49.5"/>
        <polygon points="190.28 24.17 182.19 24.21 182.18 28.44 191.36 28.46 191.38 31.48 178.74 31.48 178.73 14.82 190.98 14.83 190.99 17.77 182.19 17.78 182.19 21.28 190.25 21.29 190.28 24.17"/>
        <path d="M217.49,53.44l-6.21-.02-1.16,3.47-3.71-.04,6.02-16.86,4.02-.03,5.98,16.89-3.84.05-1.1-3.46ZM216.51,50.44l-2.09-6.36-2.17,6.39,4.26-.03Z"/>
        <path d="M130.48,53.43h-6.21s-1.16,3.46-1.16,3.46l-3.7-.05,6.02-16.87h4.04s5.97,16.88,5.97,16.88l-3.84.04-1.11-3.46ZM129.52,50.45l-2.1-6.5-2.17,6.53,4.27-.03Z"/>
        <path d="M109.02,14.92c1.17-.1,2.36-.1,3.55-.07l-.06,11.53c-.01,2.65-1.7,4.74-4.21,5.27-1.62.34-3.22.34-4.84,0-2.51-.54-4.2-2.61-4.21-5.25l-.06-11.55,3.54-.02.05,11.15c0,1.82,1.26,3.02,3.02,2.96.84-.03,1.74-.17,2.32-.71.55-.51.75-1.39.91-2.23v-11.09Z"/>
        <path d="M80.24,28.06h-6.09s-1.14,3.41-1.14,3.41l-3.65-.03,5.91-16.59,3.98-.04,5.88,16.59-3.74.12-1.14-3.45ZM79.31,25.12l-2.06-6.28-2.14,6.32,4.19-.04Z"/>
        <path d="M152.87,28.08l-6.09-.03-1.16,3.4h-3.65s5.91-16.59,5.91-16.59l3.99-.04,5.88,16.61-3.79.04-1.08-3.4ZM151.91,25.12l-2.07-6.3-2.13,6.35,4.2-.04Z"/>
        <path d="M187.64,45.1c-1.04,2.69-1.03,7.76,2.04,8.89,1.32.49,2.63.36,3.66-.43.74-.57,1.07-1.45,1.39-2.44l3.47-.03c-.44,4-3.77,6.59-7.74,6.27-3.02-.24-5.5-1.93-6.47-4.91-.82-2.5-.82-5.33,0-7.82,1.14-3.51,4.31-5.26,7.87-4.97,3.37.27,6.14,2.46,6.42,5.96l-3.59-.02c-.33-1.71-1.44-2.71-3.05-2.89-1.76-.2-3.34.69-4,2.4Z"/>
        <polygon points="118.19 40 121.89 39.99 116.15 56.84 112.78 56.9 107.07 40.03 110.85 39.97 114.51 52.72 118.19 40"/>
        <polygon points="218.08 31.46 214.55 31.46 214.54 17.79 209.55 17.76 209.56 14.83 223.02 14.82 223.04 17.76 218.08 17.79 218.08 31.46"/>
        <polygon points="138.52 31.44 135 31.46 134.99 17.79 129.99 17.76 130.05 14.82 143.46 14.82 143.51 17.75 138.53 17.79 138.52 31.44"/>
        <polygon points="149.12 53.83 149.15 56.88 137.15 56.89 137.15 40 140.72 39.97 140.73 53.82 149.12 53.83"/>
        <path d="M88.34,31.5c-2.42-.77-2.86-4.01-2.8-6.34h3.28c.06,1.12.11,2.01.36,2.93s1.2.99,1.99.89c.65-.08,1.29-.72,1.29-1.61l.02-12.54h3.51s-.05,12.7-.05,12.7c0,1.77-1.12,3.38-2.68,3.95s-3.31.52-4.91.01Z"/>
        <polygon points="204.32 56.88 200.8 56.88 200.8 40 204.33 39.96 204.32 56.88"/>
        <path d="M45.28,26.73l-4.82.03c.01-1.67-.28-2.59-.78-4.2l2.06.94,1.13-1.38,1.08,1.37,2.1-.95c-.46,1.57-.78,2.33-.77,4.18Z"/>
        <path d="M15.64,26.72l-4.81.03c0-1.68-.29-2.59-.78-4.21l2.05.95,1.14-1.38,1.07,1.38,2.11-.94c-.49,1.57-.8,2.33-.78,4.17Z"/>
        <path d="M159.76,38.51c-.72.14-1.74.19-2.36.07l-3.3-3.29,3.57-.1,2.09,3.32Z"/>
        <path d="M18.54,15.58c-.18.23-.86.11-.98-.11-.2-.35-.4-.87-.46-1.18.86-.08,1.52.43,1.44,1.3Z"/>
        <path d="M38.72,14.92c-.14.52-.95,1.28-1.31.6-.4-.74,1.58-1.58,1.44-1.08l-.13.48Z"/>
        <path d="M28,11.11c-.65.05-.6-1.39-.04-1.43.52-.04.68,1.38.04,1.43Z"/>
        <path d="M29.3,11.89c-.04.22-.52.78-.75.71-.32-.11-.25-.97,0-1.13.06-.04.45-.16.48-.09l.26.51Z"/>
        <path d="M27.47,12.6c-.19-.02-.52-.19-.66-.32-.17-.17-.05-.86.22-.9.49-.08.76.85.44,1.22Z"/>
        <path d="M33.44,14.13c-.18.02-.39-.42-.36-.6s.38-.54.56-.49c.3.09.28,1.03-.19,1.08Z"/>
        <path d="M22.55,14.13c-.42.06-.58-.94-.28-1.06.15-.06.53.16.58.31.06.19-.1.72-.3.75Z"/>
        <path d="M34.59,17.55c.09.17,0,.75-.16.77l-.81.06c-.56.04-1.31-.62-.92-1.15s1.52-.35,1.89.33Z"/>
        <path d="M23.38,17.16c-.03.41-.11.85-.31.96-.5.27-1.27.36-1.68.03-.15-.12-.06-.68.08-.82.45-.46,1.25-.54,1.91-.17Z"/>
      </g>
    </g>
  </g>
</svg>