<?xml version="1.0" encoding="UTF-8"?>
<svg id="Capa_2" data-name="Capa 2" xmlns="http://www.w3.org/2000/svg" viewBox="0 0 231.21 48.46">
  <g id="Capa_2-2" data-name="Capa 2">
    <g>
      <path d="M120.87,26.82v4.39c0,3.6.92,5.31,3.87,5.31,3.34,0,4-1.97,4-6.36V.01h15.14v31.73c0,10.88-6.49,16.72-18.62,16.72s-17.89-6.03-17.89-18.29c0-1.05.07-2.16.13-3.34h13.37,0Z"/>
      <polygon points="52.89 0 51.06 6.27 48.34 16.18 43.59 32.51 38.83 16.2 36.05 6.31 35.35 3.86 34.27 0 19.26 0 35.96 47.21 51.3 47.21 67.76 0 52.89 0"/>
      <rect y=".01" width="15.4" height="47.21"/>
      <rect x="151.58" y="7.58" width="1.34" height="8.04"/>
      <path d="M159.62,15.63h-1.25v-3.87c0-.72-.38-1.11-1.07-1.11-.93,0-1.5.56-1.5,1.56v3.42h-1.25v-5.9h1.21v.79c.41-.6,1.06-.94,1.8-.94,1.66,0,2.07.79,2.07,2.29v3.75h0Z"/>
      <path d="M164.33,11.44c-.03-.58-.47-.9-1.24-.9-.66,0-1,.28-1,.64,0,.42.35.6.98.75l.75.17c1.25.29,1.89.66,1.89,1.75,0,1.22-.92,1.97-2.55,1.97s-2.51-.77-2.51-2.1h1.23c.06.73.51,1.07,1.39,1.07.76,0,1.19-.32,1.19-.78,0-.43-.34-.57-.92-.72l-.88-.22c-1.23-.3-1.84-.73-1.84-1.69,0-1.1.85-1.83,2.3-1.83s2.42.76,2.42,1.9h-1.22,0Z"/>
      <path d="M168.23,8.11v1.62h.98v.93h-.98v3.47c0,.39.08.54.49.54.09,0,.17,0,.25,0h.25v.98c-.34.03-.63.07-.88.07-1.04,0-1.34-.43-1.34-1.42v-3.62h-.84v-.93h.84v-1.62h1.24,0Z"/>
      <path d="M171.42,8.85h-1.25v-1.26h1.25v1.26ZM171.42,15.63h-1.25v-5.9h1.25v5.9Z"/>
      <path d="M174.28,8.11v1.62h.98v.93h-.98v3.47c0,.39.08.54.49.54.09,0,.17,0,.25,0h.25v.98c-.34.03-.63.07-.88.07-1.04,0-1.34-.43-1.34-1.42v-3.62h-.84v-.93h.84v-1.62h1.24,0Z"/>
      <path d="M177.44,9.73v3.6c0,.91.22,1.36,1.07,1.36.95,0,1.5-.57,1.5-1.66v-3.31h1.24v5.9h-1.2v-.8c-.39.6-1.05.95-1.82.95-.82,0-1.4-.25-1.75-.73-.29-.41-.3-.92-.3-1.57v-3.75h1.26Z"/>
      <path d="M184.11,8.11v1.62h.98v.93h-.98v3.47c0,.39.08.54.49.54.09,0,.17,0,.25,0h.25v.98c-.34.03-.63.07-.88.07-1.04,0-1.34-.43-1.34-1.42v-3.62h-.84v-.93h.84v-1.62h1.24,0Z"/>
      <polygon points="189.83 7.58 191.88 14 193.91 7.58 195.34 7.58 192.55 15.63 191.21 15.63 188.39 7.58 189.83 7.58"/>
      <path d="M197.09,15.82c-1.21,0-1.9-.67-1.9-1.75,0-1.4.93-1.78,2.51-1.98,1.04-.13,1.31-.15,1.31-.69s-.39-.83-1.21-.83c-.77,0-1.19.34-1.19.93v.05h-1.19v-.1c0-1.15.9-1.9,2.42-1.9s2.37.59,2.37,1.75v2.92c0,.36.03.55.36.55.07,0,.16,0,.25-.02v.92c-.21.06-.42.09-.64.09-.76,0-1.12-.29-1.13-.89-.48.63-1.19.97-1.96.97M197.28,13.08c-.58.11-.86.4-.86.88,0,.54.35.85.96.85.9,0,1.61-.56,1.61-1.4v-.74c-.54.27-1.13.29-1.71.4"/>
      <rect x="201.72" y="7.58" width="1.25" height="8.04"/>
      <path d="M205.46,13.02c.02,1.11.57,1.71,1.5,1.71.67,0,1.15-.36,1.31-.96h1.24c-.22,1.22-1.26,2.05-2.63,2.05-1.67,0-2.72-1.16-2.72-3.15s1.04-3.12,2.75-3.12,2.68,1.11,2.68,3.04c0,.13-.01.28-.02.44h-4.12.01ZM206.88,10.6c-.85,0-1.34.54-1.42,1.51h2.83c-.01-.97-.53-1.51-1.41-1.51"/>
      <path d="M215.76,15.63h-1.25v-3.87c0-.72-.38-1.11-1.07-1.11-.93,0-1.5.56-1.5,1.56v3.42h-1.25v-5.9h1.21v.79c.41-.6,1.06-.94,1.8-.94,1.66,0,2.07.79,2.07,2.29v3.75h0Z"/>
      <path d="M220.93,11.74c-.07-.7-.55-1.13-1.28-1.13-.97,0-1.48.69-1.48,2.06s.51,2.04,1.44,2.04c.75,0,1.23-.44,1.34-1.24h1.2c-.1,1.45-1.09,2.35-2.66,2.35s-2.62-1.19-2.62-3.12,1.04-3.15,2.74-3.15c1.49,0,2.46.83,2.54,2.2h-1.23.01Z"/>
      <path d="M224.45,8.85h-1.25v-1.26h1.25v1.26ZM224.45,15.63h-1.25v-5.9h1.25v5.9Z"/>
      <path d="M227.48,15.82c-1.21,0-1.9-.67-1.9-1.75,0-1.4.93-1.78,2.51-1.98,1.04-.13,1.31-.15,1.31-.69s-.39-.83-1.21-.83c-.77,0-1.19.34-1.19.93v.05h-1.19v-.1c0-1.15.9-1.9,2.42-1.9s2.37.59,2.37,1.75v2.92c0,.36.03.55.36.55.07,0,.16,0,.25-.02v.92c-.21.06-.42.09-.64.09-.76,0-1.12-.29-1.13-.89-.48.63-1.19.97-1.96.97M228.01,7.02l1.1,1.96h-.7l-1.62-1.96h1.23-.01ZM227.67,13.08c-.58.11-.86.4-.86.88,0,.54.35.85.96.85.9,0,1.61-.56,1.61-1.4v-.74c-.54.27-1.13.29-1.71.4"/>
      <path d="M156.68,18.77v8.04h-1.2v-.77c-.5.66-1.06.96-1.83.96-1.48,0-2.53-1.21-2.53-3.11s1.07-3.17,2.52-3.17c.79,0,1.4.3,1.84.92v-2.87h1.21,0ZM152.38,23.9c0,1.28.59,2,1.54,2,1.01,0,1.57-.72,1.57-2.08s-.55-2-1.57-2c-.95,0-1.54.74-1.54,2.08"/>
      <path d="M159.17,24.21c.02,1.11.57,1.71,1.5,1.71.67,0,1.15-.36,1.31-.96h1.24c-.22,1.22-1.26,2.05-2.63,2.05-1.67,0-2.72-1.16-2.72-3.15s1.04-3.12,2.75-3.12,2.68,1.11,2.68,3.04c0,.13-.01.28-.02.44h-4.12.01ZM160.59,21.79c-.85,0-1.34.54-1.42,1.51h2.83c-.01-.97-.53-1.51-1.41-1.51"/>
      <rect x="167.54" y="18.77" width="1.25" height="8.04"/>
      <path d="M171.84,27c-1.21,0-1.9-.67-1.9-1.75,0-1.4.93-1.78,2.51-1.98,1.04-.13,1.31-.15,1.31-.69s-.39-.83-1.21-.83c-.77,0-1.19.34-1.19.93v.05h-1.19v-.1c0-1.15.9-1.9,2.42-1.9s2.37.59,2.37,1.75v2.92c0,.36.03.55.36.55.07,0,.16,0,.25-.02v.92c-.21.06-.42.09-.64.09-.76,0-1.12-.29-1.13-.89-.48.63-1.19.97-1.96.97M172.03,24.26c-.58.11-.86.4-.86.88,0,.54.35.85.96.85.9,0,1.61-.56,1.61-1.4v-.74c-.54.27-1.13.29-1.71.4"/>
      <path d="M183.93,18.77v5.76c0,1.68-.7,2.49-2.42,2.49s-2.45-.84-2.45-2.6v-.39h1.29v.51c0,.88.36,1.32,1.11,1.32,1.02,0,1.13-.58,1.13-1.63v-5.47h1.34Z"/>
      <path d="M190.91,23.87c0,1.97-1.1,3.13-2.89,3.13s-2.9-1.15-2.9-3.13,1.08-3.14,2.89-3.14,2.9,1.17,2.9,3.14M186.4,23.87c0,1.34.58,2.06,1.62,2.06s1.61-.72,1.61-2.06-.58-2.07-1.61-2.07-1.62.73-1.62,2.07"/>
      <polygon points="192.71 20.92 194.16 25.43 195.61 20.92 196.93 20.92 194.8 26.81 193.5 26.81 191.34 20.92 192.71 20.92"/>
      <path d="M198.69,24.21c.02,1.11.57,1.71,1.5,1.71.67,0,1.15-.36,1.31-.96h1.24c-.22,1.22-1.26,2.05-2.63,2.05-1.67,0-2.72-1.16-2.72-3.15s1.04-3.12,2.75-3.12,2.68,1.11,2.68,3.04c0,.13-.01.28-.02.44h-4.12.01ZM200.11,21.79c-.85,0-1.34.54-1.42,1.51h2.83c-.01-.97-.53-1.51-1.41-1.51"/>
      <path d="M209,26.81h-1.25v-3.87c0-.72-.38-1.11-1.07-1.11-.93,0-1.5.56-1.5,1.56v3.42h-1.25v-5.9h1.21v.79c.41-.6,1.06-.94,1.8-.94,1.66,0,2.07.79,2.07,2.29v3.75h0Z"/>
      <path d="M211.81,19.3v1.62h.98v.93h-.98v3.47c0,.39.08.54.49.54.09,0,.17,0,.25,0h.25v.98c-.34.03-.63.07-.88.07-1.04,0-1.34-.43-1.34-1.42v-3.62h-.84v-.93h.84v-1.62h1.24,0Z"/>
      <path d="M214.97,20.92v3.6c0,.91.22,1.36,1.07,1.36.95,0,1.5-.57,1.5-1.66v-3.31h1.24v5.9h-1.2v-.8c-.39.6-1.05.95-1.82.95-.82,0-1.4-.25-1.75-.73-.29-.41-.3-.92-.3-1.57v-3.75h1.26Z"/>
      <path d="M221.64,19.3v1.62h.98v.93h-.98v3.47c0,.39.08.54.49.54.09,0,.17,0,.25,0h.25v.98c-.34.03-.63.07-.88.07-1.04,0-1.34-.43-1.34-1.42v-3.62h-.84v-.93h.84v-1.62h1.24,0Z"/>
    </g>
    <path d="M75.44.01h15.34l16.58,47.21h-15.01l-1.77-6.3h-15.01l-1.84,6.3h-14.88L75.43.01h.01ZM87.83,31.01l-4.72-16.32-4.79,16.32h9.51Z"/>
  </g>
</svg>