<?xml version="1.0" encoding="UTF-8"?>
<svg id="Capa_2" data-name="Capa 2" xmlns="http://www.w3.org/2000/svg" viewBox="0 0 182.91 124.49">
  <defs>
    <style>
      .cls-1 {
        fill: #8a6e4c;
      }
    </style>
  </defs>
  <g id="HOME">
    <g id="FOOTER">
      <g>
        <path d="M85.97,109.95c.75,0,1.34-.57,1.34-1.3,0-.51-.33-1.25-.94-1.25-.79,0-1.37.57-1.37,1.34,0,.59.34,1.21.97,1.21"/>
        <path d="M90.45,109.95c.76,0,1.34-.57,1.34-1.3,0-.51-.33-1.25-.93-1.25-.8,0-1.38.57-1.38,1.34,0,.59.33,1.21.97,1.21"/>
        <path d="M118.64,114.37c.6-.49,1.26-.97,1.98-.97.41,0,.68.27.68.66,0,1.26-2.58,3.2-6.1,4.04l.43-.59c.98-1.28,2.04-2.4,3-3.14M77.44,123.58c-.49,0-.68-.18-.68-.62,0-3.39,6.16-9.46,8.27-9.46.72,0,.99.31.99,1.09l-.08.48-3.25,4.09c-2.28,2.85-4.15,4.42-5.26,4.42M139.38,114.83l-5.84,5.65c-1.3,1.27-3.27,3.19-4.84,3.19-.23,0-.37-.06-.43-.17-.2-.47.77-1.93,2.54-3.84l1.96-2.18c.66-.73,1.76-2.13,1.76-3.34,0-.67-.29-1.46-1.65-1.46-1.46,0-3.68,1.42-6.18,3.93l2.9-3.62h-2.09l-1.44,1.85-6.08,5c-.21.17-.4.33-.61.51-1.84,1.54-3.92,3.29-5.79,3.29-.67,0-.81-.26-.81-.75,0-1.31,1.43-3.39,1.96-4.15,3.82-.77,7.16-2.94,7.16-4.65,0-.84-.66-1.34-1.77-1.34-1.95,0-3.94,1.13-5.91,3.35-.37.44-.73.92-1.05,1.42l-2.8,2.86c-2.17,2.1-2.61,2.1-4.09,2.1-.87,0-1.61-.39-2.41-.81-.8-.43-1.63-.87-2.61-.87h-.07c.86-.47,1.83-.91,2.85-1.37,2.46-1.11,5.25-2.37,7.65-4.68l.21-.2c.65-.63,1.17-1.18,1.17-1.62,0-.36-.21-.56-.56-.56-.53,0-.61.51-.64.7v.05c-.11.43-.27.79-.49,1.1-.41.27-.78.4-1.17.4-.81,0-1.17-.4-1.58-.85-.44-.48-.93-1.02-2.02-1.02-1.2,0-2.03.92-3.08,2.1l-.21.23-5.38,5.56c-1.38,1.41-3.15,3.04-4.62,3.04-.43,0-.51-.17-.55-.22-.37-.74,1.28-3.01,1.9-3.86l.15-.21c1.47-2.05,4.3-5.12,5.23-6.13l.26-.3.18-.17-.31-.3-.1.1s-3.01,2.42-5.69,2.42c-.93,0-1.43-.35-1.43-.99,0-.4.21-.55.46-.72.23-.17.5-.35.5-.78,0-.49-.31-.78-.87-.78-.74,0-1.28.7-1.28,1.68,0,.81.57,1.63,1.54,1.96l-5.29,5.43c-1.85,1.92-3.3,2.88-4.27,2.88-.4,0-.66-.1-.75-.29-.35-.7,1.08-2.59,1.76-3.5.16-.21.3-.4.4-.53l4.89-6.35h-2.39l-1.11,1.37c-.06-.81-.49-1.68-2.12-1.68-2.95,0-6.22,2.86-7.89,5.87l-1.09,1.38c-.88,1.13-3.13,3.74-4.94,3.74-.37,0-.63-.13-.77-.4-.85-1.5,1.62-6.77,3.12-9.26l.78-1.3c.19-.32.41-.67.63-1.04,1.87-3.06,4.69-7.7,8.45-7.7.62,0,1.09.28,1.29.76.05.16.23.63.67.63.37,0,.68-.3.68-.65,0-.78-1.12-1.31-2.77-1.31-1.34,0-2.74.41-4.15,1.2-3.1,1.7-6.15,4.94-9.37,8.37-3.26,3.46-6.61,7.03-10.11,9.05,1.62-1.6,2.73-3.88,3.91-6.27.24-.49.48-.98.73-1.48l1.17-2.33c2.3-4.61,3.56-7.16,6.53-8.26.89.06,1.88.06,2.93.06.86,0,1.22-.21,1.22-.69,0-.27-.25-.55-.72-.55-1.25,0-2.48.2-3.66.6-4.48-.28-7.6-1.01-10.1-1.6-2.07-.49-3.85-.9-5.72-.9-4.03,0-6.45,2.21-6.48,5.92.04,3.56,3,4.83,5.52,4.83,3.53,0,5.94-2.5,5.97-4.87-.03-.2-.13-.81-.81-.81-.5,0-.81.38-.81,1,0,1.54-.57,4.13-4.36,4.13-2.46,0-4.95-1.33-4.98-4.29.03-2.82,2.15-4.01,7.09-4.01,3.41,0,5.92.3,8.57.61,1.5.18,3.05.37,4.79.49-3.62,1.57-7.68,5.87-11.6,10.02-4.79,5.07-9.73,10.32-13.68,10.32s-5.29-2.5-5.29-4.83c0-3.78,2.57-5.13,4.97-5.13,2.7,0,2.98,2.15,2.98,3.08,0,.57.39.99.91.99.77,0,1.12-.5,1.12-.99,0-1.85-2.03-3.83-5.04-3.83-2.67,0-5.54,1.84-5.54,5.88,0,2.48,1.54,5.36,5.88,5.36s9.36-5.39,14.26-10.6c2.13-2.26,4.32-4.58,6.42-6.44-1.08,1.3-2.06,2.86-2.95,4.64l-.65,1.3c-.45.84-.88,1.82-1.33,2.85-1.53,3.49-3.27,7.44-6.75,7.44-.66,0-.95-.3-1.22-.58l-.17-.16-.41-.17c-.25,0-.48.17-.54.41-.06.26.07.5.36.66.44.25,1.05.37,1.94.37.27,0,.54,0,.83-.03l.65-.1c5.32-.81,10.04-5.87,14.62-10.77,1.26-1.36,2.49-2.67,3.7-3.87-.67.89-1.21,1.72-1.6,2.36l-.82,1.3c-1.31,2.16-3.76,7.66-2.44,10.02.4.72,1.11,1.09,2.12,1.09,2.2,0,4.36-2.64,5.25-3.77-.19.62-.31,1.22-.31,1.78,0,1.24.68,1.99,1.84,1.99,1.58,0,3.73-2.17,5.02-3.64-.61,1.49-.45,2.36-.17,2.83.31.52.89.81,1.62.81,1.12,0,2.7-1.05,4.71-3.1l5.44-5.62.35.03c.46,0,.92-.06,1.42-.19-.37.34-.85.82-1.33,1.43-2.22,2.84-3.12,5.24-2.46,6.58.27.54.79.86,1.44.86,1.74,0,3.52-1.68,5.06-3.25l5.45-5.67c.59-.58,1.05-.87,1.84-.87.5,0,.87.23,1.32.51.5.31,1.06.67,1.89.67.46,0,.89-.07,1.29-.18-1.78,1.41-3.84,2.37-5.85,3.3-2.09.97-4.07,1.89-5.44,3.21-.45.45-1.2,1.28-1.2,1.82,0,.27.17.56.53.56.54,0,.69-.43.69-.65,0-.81.13-1.28.86-1.86l.09-.06c.11-.07.26-.1.47-.1.82,0,1.43.59,2.08,1.23.73.69,1.48,1.42,2.59,1.42,2.33,0,3.64-1.33,5.01-2.73.26-.27.53-.56.82-.84l1.49-1.53c-.69,1.53-1.01,3.05-.58,4,.31.69.95,1.04,1.91,1.04,2.02,0,4.53-2.13,6.21-3.53.21-.18.41-.34.58-.49l4.35-3.59-5.71,7.36h2.23l.93-1.21c5.6-7.47,9.17-9.47,10.39-9.47.26,0,.56.07.56.38,0,.66-.96,1.7-1.67,2.45l-.41.46-1.96,2.17c-1.64,1.81-2.32,3.53-1.84,4.62.24.54.75.85,1.42.85,1.8,0,3.89-2.05,5.28-3.4l5.67-5.51.11-.12-.35-.34h0Z"/>
        <path class="cls-1" d="M84.91,15.82l.03,4.04.99,2.65h1.32l1-2.65c.41-.85,1.26-1.45,2.26-1.46.99.02,1.84.61,2.24,1.46l1.01,2.65h1.32l1-2.65v-4.04h-11.17Z"/>
        <path class="cls-1" d="M83.3,23.02l-.28.45h-.73v2.64h16.43v-2.64h-.73l-.29-.45-1.12-1.8-.61,1.63-.23.62h-2.64l-.24-.62-.98-2.58c-.26-.55-.79-.9-1.36-.92-.61.01-1.14.36-1.37.85l-1.01,2.65-.24.62h-2.64l-.23-.62-.61-1.63-1.12,1.8h0Z"/>
        <path class="cls-1" d="M81.34,23.47h-.9v-4.06l-.38-.06c-.59,0-1.12.33-1.4.87l-.89,2.59-.23.65h-.91v9.46h4.71v-9.46h0Z"/>
        <polygon class="cls-1" points="68.67 12.76 69.25 12.76 69.25 13.72 69.25 14.85 69.97 14.85 69.97 13.72 69.97 12.76 70.93 12.76 73.56 12.76 74.52 12.76 74.52 13.72 74.52 14.85 75.24 14.85 75.24 13.72 75.24 12.76 75.67 12.76 75.67 4.26 68.67 4.26 68.67 12.76 68.67 12.76"/>
        <polygon class="cls-1" points="76.62 12.76 78.83 12.76 79.8 12.76 79.8 13.72 79.8 14.85 80.52 14.85 80.52 13.72 80.52 12.77 81.34 12.77 81.34 4.26 76.62 4.26 76.62 12.76 76.62 12.76"/>
        <path class="cls-1" d="M62.94,22.51h.07v-3.69c.4-.25.83-.44,1.33-.44,1.01,0,1.88.61,2.29,1.47l.99,2.66h1.32l1.01-2.66c.41-.86,1.27-1.47,2.29-1.47s1.87.61,2.28,1.47l1.01,2.66h1.32l.91-2.66c.41-.86,1.28-1.47,2.3-1.47.5,0,.93.19,1.32.44v3.69h1.1l1.63-2.62v-6.16h-2.66v2.09h-2.63v-2.09h-2.64v2.09h-2.64v-2.09h-2.64v2.09h-2.64v-2.09h-2.64v2.09h-2.64v-2.09h-2.63v6.13l1.31,2.66h1.25Z"/>
        <path class="cls-1" d="M98.73,48.99v-15.1h-16.43v15.1h1.19v-5.57c0-4.22,3.15-7.65,7-7.65s7,3.43,7,7.65v5.57s1.24,0,1.24,0h0Z"/>
        <polygon class="cls-1" points="90.6 32.24 92.13 29.94 90.6 27.62 89.07 29.94 90.6 32.24 90.6 32.24"/>
        <polygon class="cls-1" points="87.17 27.07 88.5 29.06 89.81 27.07 87.17 27.07 87.17 27.07"/>
        <polygon class="cls-1" points="91.39 27.07 92.7 29.06 94.02 27.07 91.39 27.07 91.39 27.07"/>
        <polygon class="cls-1" points="95.6 27.07 96.93 29.06 98.24 27.07 95.6 27.07 95.6 27.07"/>
        <polygon class="cls-1" points="97.5 29.94 98.73 31.8 98.73 28.07 97.5 29.94 97.5 29.94"/>
        <polygon class="cls-1" points="94.81 32.24 96.35 29.94 94.81 27.62 93.28 29.94 94.81 32.24 94.81 32.24"/>
        <polygon class="cls-1" points="84.45 48.99 86.81 48.99 86.81 47.62 84.45 47.62 84.45 48.99 84.45 48.99"/>
        <polygon class="cls-1" points="84.45 46.66 86.81 46.66 86.81 45.07 84.45 45.07 84.45 46.66 84.45 46.66"/>
        <path class="cls-1" d="M84.45,43.43v.68h2.36v-.92c0-.17,0-.35.03-.52l-2.34-.07c-.03.27-.04.54-.04.83"/>
        <polygon class="cls-1" points="86.39 32.25 87.91 29.94 86.39 27.62 84.86 29.94 86.39 32.25 86.39 32.25"/>
        <path class="cls-1" d="M88.93,39.58l-.84-2.29c-.68.33-1.29.79-1.82,1.36l1.66,1.68c.29-.31.63-.56,1-.75"/>
        <path class="cls-1" d="M84.66,41.64l2.4.08c.07-.22.18-.43.28-.62l-1.68-1.71c-.45.67-.79,1.43-1.01,2.25"/>
        <path class="cls-1" d="M118.08,22.51h1.25l1.32-2.66v-6.13h-2.64v2.09h-2.62v-2.09h-2.64v2.09h-2.64v-2.09h-2.64v2.09h-2.63v-2.09h-2.64v2.09h-2.64v-2.09h-2.65v6.16l1.63,2.62h1.1v-3.69c.39-.25.83-.44,1.33-.44,1.02,0,1.88.61,2.29,1.47l.91,2.66h1.32l1.01-2.66c.41-.86,1.28-1.47,2.29-1.47s1.88.61,2.29,1.47l1,2.66h1.32l.99-2.66c.41-.86,1.28-1.47,2.29-1.47.5,0,.94.19,1.33.44v3.69h.08Z"/>
        <polygon class="cls-1" points="94.17 46.66 96.53 46.66 96.53 45.08 94.17 45.08 94.17 46.66 94.17 46.66"/>
        <path class="cls-1" d="M93.6,41.06c.12.21.23.43.31.66l2.41-.08c-.21-.84-.57-1.61-1.04-2.29l-1.68,1.71h0Z"/>
        <path class="cls-1" d="M93.21,43.2c0-1.68-1.22-3.05-2.72-3.05s-2.73,1.37-2.73,3.05v5.79h5.45v-5.79h0Z"/>
        <path class="cls-1" d="M91.99,39.54c.38.19.72.43,1.03.74l1.66-1.69c-.54-.57-1.18-1.04-1.87-1.37l-.81,2.31h0Z"/>
        <polygon class="cls-1" points="94.17 47.62 94.17 48.99 96.52 48.99 96.53 47.62 94.17 47.62 94.17 47.62"/>
        <path class="cls-1" d="M96.53,43.43c0-.28-.02-.56-.05-.83l-2.35.08c.03.17.03.35.03.51v.93h2.36v-.69h0Z"/>
        <path class="cls-1" d="M91.08,39.25l.81-2.33c-.93-.26-1.98-.24-2.92.02l.87,2.32c.4-.08.83-.09,1.24-.01"/>
        <polygon class="cls-1" points="62.94 12.76 62.94 12.76 63.98 12.76 63.98 13.72 63.98 14.85 64.68 14.85 64.68 13.73 64.68 12.76 65.65 12.76 67.72 12.76 67.72 4.26 62.94 4.26 62.94 12.76 62.94 12.76"/>
        <polygon class="cls-1" points="62.94 3.29 81.4 3.29 81.4 0 78.76 0 78.76 2.18 76.12 2.18 76.12 0 73.49 0 73.49 2.18 70.85 2.18 70.85 0 68.21 0 68.21 2.18 65.58 2.18 65.58 0 62.94 0 62.94 3.29 62.94 3.29"/>
        <polygon class="cls-1" points="113.31 12.76 115.37 12.76 116.33 12.76 116.33 13.72 116.33 14.85 117.04 14.85 117.04 13.72 117.04 12.76 118 12.76 118.08 12.76 118.08 4.26 113.31 4.26 113.31 12.76 113.31 12.76"/>
        <path class="cls-1" d="M112.07,23.47h-.66l-.24-.62-.97-2.59c-.27-.56-.82-.91-1.42-.91s-1.15.35-1.39.85l-1.01,2.65-.23.62h-.76v9.46h6.96v-9.46h-.28Z"/>
        <polygon class="cls-1" points="105.38 12.76 105.78 12.76 105.78 13.72 105.78 14.85 106.5 14.85 106.5 13.72 106.5 12.76 107.45 12.76 110.09 12.76 111.06 12.76 111.06 13.72 111.06 14.85 111.77 14.85 111.77 13.72 111.77 12.76 112.35 12.76 112.35 4.26 105.38 4.26 105.38 12.76 105.38 12.76"/>
        <path class="cls-1" d="M102.54,46.48h-.97v-2h.97v2h0ZM104.42,33.89h-1.88v1.9h-.96v-1.9h-1.89v15.1h4.73v-15.1h0Z"/>
        <path class="cls-1" d="M109.33,46.48h-.95v-2h.95v2h0ZM112.35,33.89h-3.02v1.9h-.95v-1.9h-2.99v15.1h6.96v-15.1h0Z"/>
        <polygon class="cls-1" points="99.69 12.77 100.51 12.77 100.51 13.72 100.51 14.85 101.23 14.85 101.23 13.72 101.23 12.76 102.18 12.76 104.42 12.76 104.42 4.26 99.69 4.26 99.69 12.77 99.69 12.77"/>
        <path class="cls-1" d="M116.12,46.48h-.96v-2h.96v2h0ZM118.07,33.89h-1.95v1.9h-.96v-1.9h-1.85v15.1h4.77v-15.1h0ZM118.08,23.47h-1.04v-4.06l-.37-.06c-.61,0-1.16.35-1.4.84l-.99,2.65-.23.63h-.75v9.46h4.76v-9.46h0Z"/>
        <path class="cls-1" d="M65.85,46.48h-.96v-2h.96v2h0ZM62.94,32.93h4.77v-9.46h-.75l-.23-.63-.96-2.58c-.27-.57-.81-.91-1.42-.91l-.37.05v4.07h-1.04v9.46h0ZM62.94,48.99h4.77v-15.1h-1.86v1.9h-.96v-1.9h-1.95v15.1h0Z"/>
        <polygon class="cls-1" points="82.96 27.07 84.29 29.06 85.6 27.07 82.96 27.07 82.96 27.07"/>
        <path class="cls-1" d="M79.44,46.48h-.96v-2h.96v2h0ZM81.34,33.89h-1.89v1.9h-.96v-1.9h-1.86v15.1h4.71v-15.1h0Z"/>
        <polygon class="cls-1" points="118.08 0 115.44 0 115.44 2.18 112.81 2.18 112.81 0 110.18 0 110.18 2.18 107.53 2.18 107.53 0 104.9 0 104.9 2.18 102.26 2.18 102.26 0 99.63 0 99.63 3.29 118.08 3.29 118.08 0 118.08 0"/>
        <polygon class="cls-1" points="91.3 32.93 94.11 32.93 92.7 30.8 91.3 32.93 91.3 32.93"/>
        <polygon class="cls-1" points="95.51 32.93 98.32 32.93 96.93 30.8 95.51 32.93 95.51 32.93"/>
        <polygon class="cls-1" points="82.83 32.93 85.69 32.93 84.28 30.8 82.83 32.93 82.83 32.93"/>
        <polygon class="cls-1" points="82.29 32.01 83.7 29.93 82.29 27.8 82.29 32.01 82.29 32.01"/>
        <path class="cls-1" d="M104.42,23.47h-.94l-.23-.65-.9-2.59c-.27-.54-.81-.87-1.4-.87l-.37.06v4.06h-.9v9.46h4.73v-9.46h0Z"/>
        <polygon class="cls-1" points="87.09 32.93 89.91 32.93 88.5 30.8 87.09 32.93 87.09 32.93"/>
        <path class="cls-1" d="M71.68,44.48h.97v2h-.97v-2h0ZM75.67,48.99v-15.1h-3.02v1.9h-.97v-1.9h-3.01v15.1h7Z"/>
        <path class="cls-1" d="M75.67,32.93v-9.46h-.78l-.24-.62-.98-2.59c-.26-.56-.81-.91-1.42-.91s-1.16.35-1.39.85l-1.01,2.65-.23.62h-.94v9.46h7Z"/>
        <polygon class="cls-1" points="20.29 98.39 9.91 98.39 9.91 67.31 0 67.31 0 57.74 30.2 57.74 30.2 67.31 20.29 67.31 20.29 98.39 20.29 98.39"/>
        <path class="cls-1" d="M55.42,98.92c-4.84,0-9.21-1.51-12.3-4.25-3.6-3.23-5.35-7.69-5.35-13.66v-23.27h10.38v23.81c0,3.53,1.05,4.96,1.96,5.81,1.33,1.29,3.21,2,5.31,2s3.97-.7,5.29-1.97c.93-.87,1.98-2.3,1.98-5.83v-23.81h10.38v23.27c0,5.96-1.75,10.42-5.34,13.65-3.09,2.75-7.47,4.26-12.31,4.26"/>
        <path class="cls-1" d="M93.95,72.21h4.44c1.91,0,2.28-.4,2.49-.61.39-.44.65-1.13.65-1.78,0-.69-.25-1.4-.65-1.83-.22-.23-.62-.67-2.49-.67h-4.44v4.89h0ZM120.61,98.39h-13.01l-13.34-16.61h-.31v16.61h-10.37v-40.65h15.23c3.93,0,6.88,1.01,9.26,3.2,2.45,2.31,3.84,5.52,3.84,8.81s-1.39,6.51-3.81,8.81c-.69.66-1.46,1.21-2.3,1.68l14.82,18.15h0Z"/>
        <polygon class="cls-1" points="135.21 98.39 124.84 98.39 124.84 57.75 135.21 57.75 135.21 98.39 135.21 98.39"/>
        <path class="cls-1" d="M159.49,80.51h4.76l-2.38-5.55-2.38,5.55h0ZM182.91,98.39h-10.98l-3.54-8.31h-12.97l-3.54,8.31h-10.97l17.42-40.65h7.17l17.42,40.65h0Z"/>
        <polygon points="28.63 59.32 28.63 65.75 18.72 65.75 18.72 96.82 11.49 96.82 11.49 65.75 1.57 65.75 1.57 59.32 28.63 59.32 28.63 59.32"/>
        <path d="M44.17,93.49c-3.11-2.78-4.83-6.75-4.83-12.48v-21.7h7.23v22.23c0,3.43.91,5.52,2.47,6.96,1.61,1.55,3.86,2.41,6.38,2.41s4.77-.85,6.38-2.41c1.55-1.45,2.46-3.53,2.46-6.96v-22.23h7.24v21.7c0,5.73-1.72,9.7-4.82,12.48-2.89,2.57-7.02,3.85-11.25,3.85s-8.36-1.28-11.25-3.85"/>
        <path d="M98.39,73.77c2.09,0,3-.42,3.64-1.12.65-.7,1.07-1.77,1.07-2.84s-.42-2.2-1.07-2.89c-.64-.7-1.55-1.18-3.64-1.18h-6v8.03h6ZM92.39,80.21v16.61h-7.24v-37.5h13.66c3.86,0,6.32,1.07,8.2,2.79,2.04,1.92,3.32,4.66,3.32,7.66s-1.29,5.74-3.32,7.66c-1.01.97-2.25,1.73-3.75,2.2l14.04,17.21h-8.95l-13.34-16.61h-2.62Z"/>
        <polygon points="126.4 59.32 133.64 59.32 133.64 96.82 126.4 96.82 126.4 59.32 126.4 59.32"/>
        <path d="M157.11,82.08h9.53l-4.77-11.09-4.76,11.09h0ZM143.28,96.82l16.07-37.5h5.09l16.07,37.5h-7.56l-3.53-8.31h-15.06l-3.53,8.31h-7.55Z"/>
      </g>
    </g>
  </g>
</svg>