<?xml version="1.0" encoding="UTF-8"?>
<svg id="Capa_2" data-name="Capa 2" xmlns="http://www.w3.org/2000/svg" viewBox="0 0 807.87 280.63">
  <defs>
    <style>
      .cls-1 {
        fill: none;
      }
    </style>
  </defs>
  <g id="LOGOTIPO_B-N" data-name="LOGOTIPO B-N">
    <g>
      <g>
        <path d="M52.04,212.14c-.62-.61-.93-1.46-.93-2.55V54.53c0-1.23.31-2.12.93-2.66.61-.54,1.54-.81,2.78-.81h79.61c1.23,0,2.16.27,2.78.81.61.54.93,1.43.93,2.66v31.94c0,1.24-.31,2.16-.93,2.78-.62.62-1.54.93-2.78.93h-46.75l11.57-10.18v49.29l-11.57-14.81h39.34c1.23,0,2.16.27,2.78.81.61.54.93,1.43.93,2.66v26.15c0,1.24-.31,2.16-.93,2.78-.62.62-1.54.93-2.78.93h-39.34l11.57-10.88v43.05l-11.57-6.02h46.75c1.23,0,2.16.31,2.78.93.61.62.93,1.54.93,2.78v31.94c0,1.08-.31,1.93-.93,2.55-.62.62-1.54.93-2.78.93H54.82c-1.24,0-2.16-.31-2.78-.93Z"/>
        <path d="M171.11,208.43c-8.87-4.63-15.43-11.07-19.67-19.32-4.25-8.25-6.36-17.71-6.36-28.35,0-1.23.27-2.16.81-2.78.54-.61,1.42-.93,2.66-.93h31.71c1.23,0,2.12.31,2.66.93.54.62.81,1.54.81,2.78,0,7.41,1.66,12.96,4.98,16.66,3.32,3.7,7.52,5.55,12.61,5.55s9.03-1.39,11.8-4.17,4.17-6.86,4.17-12.27c0-3.08-1.04-5.79-3.12-8.1s-4.78-4.28-8.1-5.9c-3.32-1.62-7.91-3.51-13.77-5.67-9.41-3.7-17.21-7.25-23.37-10.65-6.17-3.39-11.5-8.33-15.97-14.81-4.48-6.48-6.71-14.81-6.71-24.99,0-8.33,2-16.12,6.02-23.37,4.01-7.25,10.33-13.11,18.98-17.59,8.64-4.47,19.44-6.71,32.4-6.71,18.2,0,32.21,4.59,42.01,13.77,9.8,9.18,15.08,21.41,15.85,36.68,0,1.08-.31,1.93-.93,2.55s-1.54.93-2.78.93h-31.47c-1.08,0-1.93-.31-2.55-.93-.62-.61-1.01-1.46-1.16-2.55-.31-7.25-2.12-12.34-5.44-15.27-3.32-2.93-7.21-4.4-11.69-4.4-3.7,0-6.79,1.16-9.26,3.47-2.47,2.31-3.7,5.48-3.7,9.49,0,3.09,1.08,5.79,3.24,8.1,2.16,2.31,4.86,4.28,8.1,5.9,3.24,1.62,7.87,3.51,13.89,5.67,9.56,3.4,17.47,6.79,23.72,10.18,6.25,3.4,11.65,8.37,16.2,14.93,4.55,6.56,6.83,15.08,6.83,25.57,0,9.88-2.31,18.79-6.94,26.73-4.63,7.95-11.46,14.23-20.48,18.86-9.03,4.63-19.87,6.94-32.52,6.94-13.42,0-24.57-2.31-33.44-6.94Z"/>
        <path d="M289.83,208.66c-11.96-14.12-17.94-35.14-17.94-63.07s5.94-47.94,17.82-61.91c11.88-13.96,28.85-20.94,50.92-20.94,18.82,0,33.71,5.36,44.67,16.08,10.96,10.73,16.74,28.74,17.36,54.04,0,1.24-.31,2.12-.92,2.66-.62.54-1.54.81-2.78.81h-34.95c-1.24,0-2.12-.27-2.66-.81-.54-.54-.81-1.42-.81-2.66,0-8.18-.77-14.62-2.31-19.32-1.54-4.7-3.74-8.06-6.6-10.07-2.86-2-6.44-3.01-10.76-3.01-4.94,0-8.95,1.5-12.03,4.51-3.09,3.01-5.29,7.75-6.6,14.23-1.31,6.48-1.97,15.12-1.97,25.92s.65,20.21,1.97,26.85c1.31,6.64,3.47,11.54,6.48,14.7,3.01,3.16,6.98,4.74,11.92,4.74,4.32,0,7.94-1.23,10.88-3.7,2.93-2.47,5.17-6.32,6.71-11.57,1.54-5.24,2.31-12.11,2.31-20.6,0-1.23.27-2.12.81-2.66.54-.54,1.42-.81,2.66-.81h34.95c1.23,0,2.16.27,2.78.81.61.54.92,1.43.92,2.66-.62,25.92-6.6,44.78-17.94,56.58-11.34,11.8-26.58,17.71-45.71,17.71-20.83,0-37.22-7.06-49.18-21.18Z"/>
        <path d="M417.46,212.14c-.62-.61-.93-1.46-.93-2.55V54.53c0-1.23.31-2.12.93-2.66.62-.54,1.46-.81,2.55-.81h40.73c1.23,0,2.16.27,2.78.81.61.54.93,1.43.93,2.66v127.06l-10.42-7.64h45.36c1.23,0,2.12.27,2.66.81.54.54.81,1.43.81,2.66v32.17c0,1.08-.27,1.93-.81,2.55-.54.62-1.43.93-2.66.93h-79.38c-1.08,0-1.93-.31-2.55-.93Z"/>
        <path d="M510.04,209.36l30.09-154.83c.15-1.08.58-1.93,1.27-2.55.69-.61,1.66-.93,2.89-.93h64.8c1.23,0,2.2.31,2.89.93.69.62,1.12,1.47,1.27,2.55l31.94,154.83c.46,2.47-.54,3.7-3.01,3.7h-42.12c-1.24,0-2.2-.31-2.89-.93-.69-.61-1.12-1.46-1.27-2.55l-8.79-50.45,7.41,6.94c-6.79,2.78-14.16,4.21-22.1,4.28-7.95.08-15.24-1.35-21.87-4.28l7.87-6.94-8.33,50.45c-.16,1.08-.54,1.93-1.16,2.55-.62.62-1.54.93-2.78.93h-33.09c-2.47,0-3.47-1.23-3.01-3.7ZM583.87,134.26c2.78-3.16,4.17-8.45,4.17-15.85s-1.39-12.84-4.17-16.32c-2.78-3.47-6.48-5.21-11.11-5.21s-8.33,1.74-11.11,5.21c-2.78,3.47-4.17,8.91-4.17,16.32s1.39,12.69,4.17,15.85c2.78,3.16,6.48,4.74,11.11,4.74s8.33-1.58,11.11-4.74Z"/>
        <path d="M681.53,212.14c-.62-.61-.93-1.46-.93-2.55v-119.42h-24.76c-1.24,0-2.12-.31-2.66-.93-.54-.61-.81-1.46-.81-2.55v-32.17c0-1.23.27-2.12.81-2.66.54-.54,1.42-.81,2.66-.81h97.43c1.23,0,2.12.27,2.66.81.54.54.81,1.43.81,2.66v32.17c0,1.08-.27,1.93-.81,2.55-.54.62-1.43.93-2.66.93h-24.76v119.42c0,1.08-.31,1.93-.93,2.55-.62.62-1.54.93-2.78.93h-40.73c-1.08,0-1.93-.31-2.55-.93Z"/>
      </g>
      <rect class="cls-1" width="807.87" height="280.63"/>
    </g>
  </g>
</svg>