<?xml version="1.0" encoding="UTF-8"?>
<svg id="Capa_2" data-name="Capa 2" xmlns="http://www.w3.org/2000/svg" viewBox="0 0 205.39 65.88">
  <defs>
    <style>
      .cls-1 {
        fill-rule: evenodd;
      }
    </style>
  </defs>
  <g id="HOME">
    <g id="FOOTER">
      <g>
        <path class="cls-1" d="M204.24,56.83c.26.11.48.28.66.52.44.83.48,1.09.48,1.36,0,.35-.08.7-.25,1.03-.16.33-.44.57-.81.7.32.15.54.33.67.59.13.24.2.61.2,1.12,0,.83-.08,1.64-.05,1.75l-1.4.02.02-1.01v-.68c-.01-.46-.1-.77-.25-.94-.15-.15-.44-.22-.86-.22h-1.48v2.85h-1.4v-7.27h3.36c.48,0,.85.07,1.11.18h0ZM201.18,57.9v1.95h1.62c.32,0,.56-.04.73-.11.28-.13.43-.4.43-.81,0-.44-.14-.74-.41-.9-.16-.07-.39-.13-.7-.13h-1.66ZM196.36,56.64h2.06v7.27h-1.33v-6.11s-1.29,6.11-1.29,6.11h-1.39l-1.29-6.11v1.2s0,4.91,0,4.91h-1.33v-7.27h2.08l1.25,5.71,1.23-5.71h0Z"/>
        <path class="cls-1" d="M77.27,57.47c-7.49-4.82-17.65-5.67-34.03-1.12-17.47,4.1-23.29,6.74-30.94,1.45-2.94-2.6-3.99-6.77-3.21-12.79,1.82-9.81,6.76-19.25,15.51-29.73,4.89-5.45,9.42-10.12,15.41-12,4.59-1.18,4.16,2.43,3.61,2.94-.59,0-1.57.09-2.33.59-.62.48-2.31,2.03-2.4,4.1-.13,3.18,3.16,2.52,4.59.77,1.53-1.97,3.8-5.74,2.01-9.26-.75-1.25-2.04-2.12-3.64-2.41-5.48-.31-10.59,2.3-15.3,5.19C16.23,12.38,7.99,22.3,3.32,33.16c-2.69,6.55-5.12,15.94-1.48,23.58,2.82,5.3,8.68,8.12,15.66,7.53,4.9-.52,10.83-2.1,14.81-3.06,3.99-.96,24.39-7.97,31.09,4.23,0,0,2.23-4.33,7.8-4.42,4.58-.42,11.19,1.33,16,4.86-1.6-2.41-6.15-5.96-9.94-8.41h0Z"/>
        <path class="cls-1" d="M45.31,16.52c-3.81-2.5-11.48,2.28-17.63,10.49-5.62,7.36-8.04,15.92-5.4,19.88,3.93,4.66,11.22-2.12,14.31-5.74l.4-.42c2.11-2.26,3.74-4.99,5.31-7.6,0,0,1.45-2.39,1.52-2.5.9-.17,1.97-.42,3.19-.77-.02.05-4.65,7.84-4.18,11.71.15,1.18.04,5.49,4.24,6.79,5.6.94,10.08-3.41,14.03-7.27,0,0,.67-.64,1.05-1.01-.1.39-.22.9-.22.9-1.64,5.71.57,6.9,1.95,7.34,4.18,1.22,9.18-4.86,9.19-4.86-.13,1.91-.51,3.5,1.51,4.77,1.9.68,3.83-.33,5.3-1.31,5.28-3.72,9.53-9.57,12.96-14.54h-2.19s-5.4,7.77-8.89,9.46c0,0-.64.31-1.01.05-.45-.39-.27-1.25,0-1.82.02-.04,13.48-23.45,13.48-23.45h-6.36s-.69,1.18-.75,1.25c-.04-.04-.14-.2-.22-.29-3.94-5.45-12.86,2.95-19.57,12.66-2.59,3.74-5.88,7.95-9.29,10.99,0,0-5.06,4.64-7.22,1.31-.79-1.4-.55-3.44-.1-4.79,2.52-7.16,6.85-13.66,11.78-17.58,1.39-1.09,2.91-1.4,3.66-.94.72.42.83,1.47.38,2.19-1.15-.04-2.07.31-2.82,1.09-1.47,1.55-1.99,3.04-1.52,4.44,2.28,3.24,6.82-3.17,6.6-7.07-.08-1.4-.83-2.72-1.94-3.37-1.66-.99-4.19-.74-5.83.06-2.19.83-5.67,3.72-7.69,5.96-2.55,2.82-6.93,5.95-8.3,5.6.45-1.2,4.15-8.76.26-11.6h0ZM75.96,27.71c1.24-1.71,4.84-6.3,5.71-7.07,2.95-2.6,4.13-1.45,4.23-.64-2.75,4.93-6.01,10.58-9.06,15.66,0-.02-.96,1.45-.96,1.45-1.35,2.06-2.71,3.83-4.93,5.06-.32.09-.84.13-1.18-.13-.42-.28-.58-.74-.53-1.22.13-1.58,1.74-6.42,6.72-13.12h0ZM41.38,30.67s-.06.17-.08.22c0,0-2.77,4.51-2.77,4.51-1.67,2.23-3.75,5.03-6.36,6.37-.77.26-1.84.42-2.38-.26-1.15-1.38-.56-3.29-.08-4.84l.17-.55c1.38-3.75,3.58-7.07,5.72-10.14.03-.02.09-.04.11-.04,0,.02.01.02.02.06,1.34,2.58,3.86,3.77,5.74,4.33.01,0,.02.02.02.06,0,.05-.03.13-.1.29h0ZM44,25.35s-1.23,2.83-1.23,2.83c-.18.15-.46.07-.77,0l-.55-.09c-1.72-.53-3.02-1.67-3.41-3.04-.55-2.65,1.71-4.73,2.71-5.48.96-.66,2.44-1.01,3.31-.33.53.63.74,1.44.74,2.32,0,1.2-.37,2.54-.79,3.79h0Z"/>
        <path class="cls-1" d="M124.36,33.89c-.61-1.33-2.07-2.17-3.62-2.08-5.04.46-9.96,4.6-12.55,10.55-1.36,3.06-2.1,5.58-2.58,9.59,1.57-1.8,4.76-4.77,8.38-6.39,0,0,.49-3.85,3.01-7.27.95-1.42,2.86-3.7,5-3.09,1.87.63,1.21,5.8-1.27,10.8-1.84,3.68-4.65,7.36-7.49,9.9-2.52,2.14-6.24,4.71-9.49,2.72-2.05-1.21-3.1-3.75-2.88-7.03.98-9.3,5.21-17.21,11.27-26.23,6.24-8.37,13.13-16.97,22.4-21.55,1.89-.96,3.64-1.18,5.16-.59,0,0-8.7,4.79-12.85,13.64-1.05,2.25-2.52,5.28-1.04,7.97.77,1.4,2.14,1.51,3.25,1.44,5.09-1.18,8.37-5.93,11.05-10.27,1.56-3.29,2.94-6.57,2.94-10.22,0-.44-.02-1.03-.06-1.47,2.43-1.29,7.41.99,7.41.99,3.89,1.29,12.18,7.64,14.98,8.85,1.36-1.58,3.6-3.98,4.87-5.17l-1.83-1.12c-2.92-1.79-6.02-3.48-9.06-5.15-6.91-3.77-12.54-2.45-15.4-1.42-1.13.4-2.15.75-2.15.75-2.13-2.32-5.61-2.1-8.18-1.47-9.23,2.65-17.81,9.11-27,20.32-6.76,8.78-10.95,16.36-13.18,23.85-1.72,5.04-2.25,12.46,1.96,16.86,3.57,3.74,8.31,2.93,11.66,1.58,7.25-3.57,13.77-11.26,17.01-20.12.78-2.63,1.65-6.35.3-9.18h0ZM141.04,6.15c-.96,11.01-9.52,17.47-11.63,17.98-1.28.26-3.47-.31-1.52-4.93,2.88-6.22,7.79-11.5,13.06-14.21.13.46.12.75.09,1.16h0Z"/>
        <path class="cls-1" d="M191.79,7.55c-4.6,2.61-9.37,4.31-15.15,3.72-1.6,1.8-3.16,3.66-4.6,5.58,8.11,2.06,16.7-2.52,21.49-6.88C198.61,5.57,201.21.03,201.21.03c0,0-3.8,4.34-9.42,7.53h0Z"/>
        <polygon class="cls-1" points="104.81 16.61 98.77 16.61 95.37 22.37 101.4 22.37 104.81 16.61 104.81 16.61"/>
        <path class="cls-1" d="M176.62,58.04c-.65.44-1.56.07-1.22-.94.85-2.58,4.23-7.88,4.23-7.88l9.4-16.73h-6.44c-.31.55-.96,1.69-.96,1.69-.3-.5-1.19-1.58-1.56-1.82-1.57-.99-3.88-.52-5.48.39-6.93,4.05-11.98,12.06-15.97,18.3,0,0-4.2,6.94-6.52,7.45-1.82.15-1.63-2.3-1.55-2.87.7-4.12,2.34-8.04,3.98-11.6,3.34-2.32,7.16-5.36,10.63-8.69,7.53-7.2,13.88-15.35,14.81-17.17,0,0-1,.2-2.19.24-5.79,8.08-17.65,19.82-21.24,21.57,1.59-3.83,11.88-22.11,20.63-30.85l1.38-1.33c2.13-2.08,4.34-4.21,6.06-4.56.18-.02.42,0,.62.42.08,1.62-.53,2.82-1.22,4.18l-.97,1.99s1.37-.26,2.27-.55c1.05-1.97,2.21-4.18,1.78-6.81-.14-.85-.75-1.49-1.56-1.64-2.61-.5-5.46,1.44-7.75,3l-.09.05c-11.77,9.22-21.71,22.51-30.4,40.66-.63.48-3.06,1.05-3.48.77.86-1.77,1.94-4.14,2.48-6.72.09-.74.18-1.49.18-2.23,0-1.58-.38-3.07-1.8-4.1-1.66-.83-3.72-.44-5.11.18-6.21,2.58-10.85,8.95-14.2,14.19-1.8,3.33-3.6,6.9-4.1,10.99-.35,3.2.36,5.26,2.18,6.3,1.87.96,4.23-.04,5.15-.52,6.29-3.31,10.69-9.96,14.16-16.03.14-.02,2.03-.07,3.46-.44.02,0,.03,0,.06.02-.08.28-.82,2.48-.82,2.48-2.2,6.44-3.21,10.82-1.14,13.42,2.96,3.66,7.87-.13,11.87-5.14-.86,6,2.25,6.94,4.62,6.48,2.72-.74,5.76-3.64,7.17-5.14-.45,1.75-.33,4.88,2.15,5.19,1.7.31,2.97-.55,4.44-1.34,5.27-2.87,11.59-12.5,13.23-15.15h-2.15c-2.33,3.44-5.29,8.08-9.03,10.27h0ZM129.28,57.34c-.33-.5-.45-1.07-.46-1.66-.06-3.61,3.82-10.03,6.56-13.62h0c1.15,2.67,3.75,4.16,5.32,4.84-1.95,4.34-8.64,13.68-11.43,10.44h0ZM141.81,44.99c-.19.13-3.47-.98-4.1-4.01-.54-2.61,1.26-4.66,3.01-5.69.75-.59,1.87-.79,2.7-.5.77.52.97,1.44.97,2.43,0,.61-.08,1.23-.15,1.8,0,0-.01.11-.02.13-.55,2.04-1.38,4.05-2.41,5.83h0ZM168.11,56.18s-.62.55-.62.55c-.88.79-1.8,1.64-2.89,1.22-.3-.11-.52-.52-.57-.83-.05-2.26.97-4.36,1.96-6.41l.25-.53c2.84-4.75,6.15-10.34,11.01-14.23.82-.59,1.71-1.09,2.64-.7.22.2.47.55.47.9,0,.11-.1.4-.16.5-1.36,2.19-2.65,4.49-3.9,6.7-2.45,4.36-5,8.87-8.18,12.83h0Z"/>
      </g>
    </g>
  </g>
</svg>