<?xml version="1.0" encoding="UTF-8"?>
<svg id="Capa_2" data-name="Capa 2" xmlns="http://www.w3.org/2000/svg" viewBox="0 0 231.38 62.48">
  <defs>
    <style>
      .cls-1 {
        fill: #010101;
      }
    </style>
  </defs>
  <g id="HOME">
    <g id="FOOTER">
      <g>
        <path class="cls-1" d="M78.35.87h6.79c7.86,0,12.68,4.54,12.68,12.05,0,7.07-5.23,12.05-12.68,12.05h-6.79V.87h0ZM84.9,22.2c6.34,0,9.87-3.57,9.87-9.28,0-6.13-3.12-9.28-9.87-9.28h-3.57v18.56h3.57Z"/>
        <path class="cls-1" d="M100.14,1.42h3.32v3.46h-3.32V1.42h0ZM100.38,7.79h2.84v17.18h-2.84V7.79h0Z"/>
        <path class="cls-1" d="M106.47,7.79h2.84v3.15c1.28-2.6,3.5-3.57,5.61-3.57,4.36,0,7.65,3.5,7.65,9s-3.29,9.01-7.65,9.01c-2.11,0-4.33-.97-5.61-3.57v10.08h-2.84V7.79h0ZM119.67,16.38c0-4.09-1.94-6.37-5.2-6.37s-5.2,2.29-5.2,6.37,1.94,6.37,5.2,6.37,5.2-2.29,5.2-6.37"/>
        <path class="cls-1" d="M124.82,18.43V7.79h2.84v9.91c0,3.6,1.18,5.13,4.16,5.13s4.36-2.01,4.36-6.06V7.79h2.84v17.18h-2.84v-2.91c-1,2.32-2.77,3.33-4.88,3.33-4.16,0-6.48-2.63-6.48-6.96"/>
        <path class="cls-1" d="M143.39,19.29v-8.87h-3.01v-2.63h3.01V3.26l2.84-.55v5.09h4.88v2.63h-4.88v9.04c0,2.36.9,3.33,2.98,3.33.62,0,1.39-.17,1.94-.42l.69,2.49c-.59.28-1.84.52-2.77.52-3.98,0-5.68-2.39-5.68-6.1"/>
        <path class="cls-1" d="M152.14,20.4c0-3.01,2.18-4.88,5.82-5.58l2.39-.45c2.46-.45,2.81-1,2.81-2.08,0-1.49-1.32-2.39-3.81-2.39-2.01,0-3.84,1.07-4.68,3.19l-2.32-1.25c1.49-2.98,3.85-4.47,7-4.47,4.12,0,6.75,2.08,6.75,6.58v6.62c0,1.73.07,2.94.76,4.4h-2.84c-.35-.83-.52-1.94-.59-2.87-1.18,2.25-3.15,3.29-5.4,3.29-3.57,0-5.89-2.22-5.89-4.99M163.26,17.53v-1.73c-1.04.62-2.6.9-3.88,1.11-3.39.48-4.4,1.42-4.4,3.08,0,1.8,1.32,2.91,3.53,2.91,3.15,0,4.75-1.77,4.75-5.37"/>
        <path class="cls-1" d="M168.37,16.38c0-5.4,3.32-9.01,8.28-9.01,3.43,0,6.17,2.11,7.1,5.51l-2.53.97c-.66-2.53-2.29-3.84-4.71-3.84-3.32,0-5.23,2.22-5.23,6.37s1.91,6.37,5.23,6.37c2.42,0,3.98-1.25,4.71-3.84l2.53.97c-.97,3.43-3.71,5.51-7.1,5.51-4.95,0-8.28-3.53-8.28-9.01"/>
        <path class="cls-1" d="M185.62,1.42h3.32v3.46h-3.32V1.42h0ZM185.86,7.79h2.84v17.18h-2.84V7.79h0Z"/>
        <path class="cls-1" d="M190.99,16.38c0-5.51,3.78-9.01,8.24-9.01s8.24,3.29,8.24,9.01-3.78,9.01-8.24,9.01-8.24-3.29-8.24-9.01M204.56,16.38c0-4.09-2.08-6.37-5.33-6.37s-5.33,2.29-5.33,6.37,2.08,6.37,5.33,6.37,5.33-2.29,5.33-6.37M196.32,3.81l6.51-3.81,1.32,2.49-6.93,3.19-.9-1.87h0Z"/>
        <path class="cls-1" d="M77.1,53.48c0-5.16,3.22-9.01,7.58-9.01,2.36,0,4.64,1.28,5.61,3.6v-10.11h2.84v24.11h-2.84v-3.46c-1.07,2.56-3.22,3.88-5.61,3.88-4.36,0-7.58-3.64-7.58-9.01M90.33,53.48c0-4.09-1.91-6.37-5.16-6.37s-5.16,2.29-5.16,6.37,1.91,6.37,5.16,6.37,5.16-2.29,5.16-6.37"/>
        <path class="cls-1" d="M108.26,56.63l2.42,1.14c-1.45,3.43-4.02,4.71-6.93,4.71-5.4,0-8.17-3.78-8.17-9.01s2.98-9.01,7.79-9.01,7.55,3.5,7.55,9.35h-12.5c.03,3.95,1.87,6.03,5.33,6.03,2.15,0,3.67-.94,4.5-3.22M107.88,51.54c-.24-2.94-1.9-4.57-4.64-4.57-2.53,0-4.26,1.7-4.64,4.57h9.28Z"/>
        <polygon class="cls-1" points="117.64 37.96 120.83 37.96 128.35 57.6 135.86 37.96 138.94 37.96 129.63 62.07 126.96 62.07 117.64 37.96 117.64 37.96"/>
        <path class="cls-1" d="M137.33,57.49c0-3.01,2.18-4.88,5.82-5.58l2.39-.45c2.46-.45,2.81-1,2.81-2.08,0-1.49-1.32-2.39-3.81-2.39-2.01,0-3.85,1.07-4.68,3.19l-2.32-1.25c1.49-2.98,3.84-4.47,7-4.47,4.12,0,6.75,2.08,6.75,6.58v6.62c0,1.73.07,2.94.76,4.4h-2.84c-.35-.83-.52-1.94-.59-2.87-1.18,2.25-3.15,3.29-5.4,3.29-3.57,0-5.89-2.22-5.89-4.99M148.45,54.62v-1.73c-1.04.62-2.6.9-3.88,1.11-3.39.48-4.4,1.42-4.4,3.08,0,1.8,1.32,2.91,3.53,2.91,3.15,0,4.74-1.77,4.74-5.37"/>
        <polygon class="cls-1" points="154.52 37.96 157.36 37.96 157.36 62.07 154.52 62.07 154.52 37.96 154.52 37.96"/>
        <path class="cls-1" d="M172.48,56.63l2.42,1.14c-1.46,3.43-4.02,4.71-6.93,4.71-5.4,0-8.17-3.78-8.17-9.01s2.98-9.01,7.79-9.01,7.55,3.5,7.55,9.35h-12.5c.03,3.95,1.87,6.03,5.33,6.03,2.15,0,3.67-.94,4.5-3.22M162.82,39.55l1.32-2.49,6.51,3.81-.9,1.87-6.93-3.19h0ZM172.1,51.54c-.24-2.94-1.9-4.57-4.64-4.57-2.53,0-4.26,1.7-4.64,4.57h9.28Z"/>
        <path class="cls-1" d="M177.47,44.89h2.84v3.12c1.11-2.49,2.98-3.53,5.13-3.53,4.16,0,6.37,3.26,6.37,7.52v10.08h-2.84v-9.52c0-3.98-1.28-5.51-4.09-5.51s-4.57,1.84-4.57,5.89v9.14h-2.84v-17.18h0Z"/>
        <path class="cls-1" d="M194.07,53.48c0-5.4,3.32-9.01,8.28-9.01,3.43,0,6.17,2.11,7.1,5.51l-2.53.97c-.66-2.53-2.29-3.84-4.71-3.84-3.32,0-5.23,2.22-5.23,6.37s1.91,6.37,5.23,6.37c2.42,0,3.98-1.25,4.71-3.84l2.53.97c-.97,3.43-3.71,5.51-7.1,5.51-4.95,0-8.28-3.53-8.28-9.01"/>
        <path class="cls-1" d="M211.32,38.51h3.32v3.46h-3.32v-3.46h0ZM211.56,44.89h2.84v17.18h-2.84v-17.18h0Z"/>
        <path class="cls-1" d="M216.66,57.49c0-3.01,2.18-4.88,5.82-5.58l2.39-.45c2.46-.45,2.81-1,2.81-2.08,0-1.49-1.32-2.39-3.81-2.39-2.01,0-3.85,1.07-4.68,3.19l-2.32-1.25c1.49-2.98,3.84-4.47,7-4.47,4.12,0,6.75,2.08,6.75,6.58v6.62c0,1.73.07,2.94.76,4.4h-2.84c-.35-.83-.52-1.94-.59-2.87-1.18,2.25-3.15,3.29-5.4,3.29-3.57,0-5.89-2.22-5.89-4.99M227.78,54.62v-1.73c-1.04.62-2.6.9-3.88,1.11-3.39.48-4.4,1.42-4.4,3.08,0,1.8,1.32,2.91,3.53,2.91,3.15,0,4.74-1.77,4.74-5.37"/>
        <polygon class="cls-1" points="62.99 62.08 60.53 62.08 60.53 .81 62.99 .81 62.99 62.08 62.99 62.08"/>
        <path class="cls-1" d="M23.63.81h8c8.19,0,13.63,4.8,13.63,12.55s-5.88,12.55-13.63,12.55h-8V.81h0ZM31.67,21.22c5.23,0,8.47-2.85,8.47-7.86,0-5.34-2.88-7.86-8.47-7.86h-2.99v15.72h2.99Z"/>
        <polygon class="cls-1" points="21.54 36.98 26.98 36.98 33.62 54.32 40.25 36.98 45.55 36.98 35.86 62.08 31.24 62.08 21.54 36.98 21.54 36.98"/>
        <path class="cls-1" d="M13.65,54.07C5.36,50.12,0,41.24,0,31.44S5.36,12.76,13.65,8.81l2.32,4.86c-6.43,3.06-10.58,10.04-10.58,17.77s4.16,14.7,10.58,17.77l-2.32,4.86h0Z"/>
      </g>
    </g>
  </g>
</svg>